<svg width="480" height="480" viewBox="0 0 480 480" fill="none" xmlns="http://www.w3.org/2000/svg">
<path d="M201.592 208.584C202.296 208.864 203.016 209.112 203.72 209.376C203.592 209.328 203.472 209.272 203.344 209.224C202.768 209.008 202.168 208.816 201.592 208.584Z" fill="#D45B5B"/>
<path d="M177.984 195.344C177.88 195.264 177.776 195.192 177.68 195.112C177.784 195.192 177.88 195.272 177.984 195.344Z" fill="#D45B5B"/>
<path d="M186.032 200.776C185.744 200.6 185.456 200.432 185.176 200.256C185.456 200.432 185.744 200.6 186.032 200.776Z" fill="#D45B5B"/>
<path d="M294.832 200.256C294.544 200.432 294.256 200.6 293.976 200.776C294.256 200.6 294.544 200.432 294.832 200.256Z" fill="#D45B5B"/>
<path d="M302.32 195.12C302.216 195.2 302.12 195.272 302.016 195.352C302.12 195.272 302.216 195.192 302.32 195.12Z" fill="#D45B5B"/>
<path d="M194.784 205.544C194.232 205.28 193.68 205.024 193.128 204.752C193.68 205.032 194.24 205.28 194.784 205.544Z" fill="#D45B5B"/>
<path d="M286.864 204.752C286.32 205.032 285.76 205.28 285.208 205.544C285.76 205.28 286.32 205.032 286.864 204.752Z" fill="#D45B5B"/>
<path d="M249.448 215.552C249.704 215.528 249.968 215.512 250.224 215.48C250.096 215.496 249.96 215.488 249.832 215.504C249.704 215.512 249.576 215.544 249.448 215.552Z" fill="#D45B5B"/>
<path d="M267.608 212.208C268.224 212.04 268.848 211.88 269.464 211.696C269.08 211.808 268.68 211.888 268.296 212C268.064 212.064 267.84 212.144 267.608 212.208Z" fill="#D45B5B"/>
<path d="M276.272 209.376C276.984 209.112 277.704 208.864 278.4 208.584C277.824 208.816 277.224 209.008 276.64 209.224C276.528 209.28 276.4 209.336 276.272 209.376Z" fill="#D45B5B"/>
<path d="M258.656 214.28C259.128 214.192 259.592 214.12 260.064 214.024C259.808 214.072 259.544 214.096 259.296 214.144C259.08 214.184 258.872 214.24 258.656 214.28Z" fill="#D45B5B"/>
<path d="M229.776 215.48C230.032 215.504 230.296 215.528 230.552 215.552C230.424 215.544 230.296 215.512 230.168 215.504C230.04 215.488 229.904 215.496 229.776 215.48Z" fill="#D45B5B"/>
<path d="M210.536 211.696C211.152 211.88 211.776 212.04 212.392 212.208C212.16 212.144 211.936 212.064 211.704 212C211.312 211.888 210.92 211.816 210.536 211.696Z" fill="#D45B5B"/>
<path d="M219.936 214.024C220.4 214.12 220.872 214.192 221.344 214.28C221.128 214.24 220.92 214.184 220.704 214.144C220.448 214.096 220.192 214.072 219.936 214.024Z" fill="#D45B5B"/>
<path d="M253.336 215.048C255.12 214.816 256.904 214.6 258.656 214.28C257.28 214.536 255.864 214.68 254.464 214.88C254.088 214.928 253.72 215 253.336 215.048Z" fill="#D45B5B"/>
<path d="M211.704 212C211.936 212.064 212.16 212.144 212.392 212.208C213.056 212.392 213.744 212.52 214.416 212.696C213.512 212.464 212.6 212.256 211.704 212Z" fill="#D45B5B"/>
<path d="M254.472 214.88C255.872 214.68 257.28 214.536 258.664 214.28C258.88 214.24 259.088 214.184 259.304 214.144C257.704 214.44 256.08 214.656 254.472 214.88Z" fill="#D45B5B"/>
<path d="M221.344 214.28C223.096 214.6 224.88 214.824 226.664 215.048C226.288 215 225.912 214.928 225.536 214.872C224.136 214.68 222.72 214.528 221.344 214.28Z" fill="#D45B5B"/>
<path d="M265.584 212.696C266.256 212.528 266.944 212.392 267.608 212.208C267.84 212.144 268.064 212.064 268.296 212C267.4 212.256 266.488 212.464 265.584 212.696Z" fill="#D45B5B"/>
<path d="M240 216C243.192 216 246.336 215.832 249.448 215.552C249.576 215.544 249.704 215.512 249.832 215.504C246.592 215.808 243.32 216 240 216Z" fill="#D45B5B"/>
<path d="M263.624 213.2C264.96 212.888 266.288 212.576 267.608 212.208C266.944 212.392 266.256 212.52 265.584 212.696C264.928 212.864 264.288 213.048 263.624 213.2Z" fill="#D45B5B"/>
<path d="M212.392 212.208C213.704 212.576 215.04 212.888 216.376 213.2C215.72 213.048 215.072 212.864 214.416 212.696C213.744 212.528 213.056 212.392 212.392 212.208Z" fill="#D45B5B"/>
<path d="M275.76 209.552C275.928 209.488 276.104 209.44 276.272 209.376C276.4 209.328 276.52 209.272 276.648 209.224C276.352 209.344 276.056 209.448 275.76 209.552Z" fill="#D45B5B"/>
<path d="M197.888 207.04C197.416 206.832 196.968 206.584 196.504 206.376C196.968 206.592 197.416 206.832 197.888 207.04Z" fill="#D45B5B"/>
<path d="M273.144 210.512C274.2 210.152 275.24 209.768 276.272 209.376C276.104 209.44 275.928 209.488 275.76 209.552C274.888 209.872 274.024 210.216 273.144 210.512Z" fill="#D45B5B"/>
<path d="M230.552 215.552C233.664 215.832 236.808 216 240 216C236.68 216 233.408 215.808 230.168 215.504C230.296 215.512 230.424 215.544 230.552 215.552Z" fill="#D45B5B"/>
<path d="M283.504 206.376C283.04 206.592 282.584 206.832 282.12 207.04C282.584 206.832 283.032 206.592 283.504 206.376Z" fill="#D45B5B"/>
<path d="M220.704 214.144C220.92 214.184 221.128 214.24 221.344 214.28C222.72 214.536 224.136 214.68 225.536 214.88C223.92 214.656 222.296 214.44 220.704 214.144Z" fill="#D45B5B"/>
<path d="M203.728 209.376C204.768 209.768 205.808 210.152 206.856 210.512C205.976 210.216 205.112 209.872 204.24 209.552C204.072 209.496 203.896 209.44 203.728 209.376Z" fill="#D45B5B"/>
<path d="M249.448 215.552C246.336 215.832 243.192 216 240 216C243.192 216 246.336 215.832 249.448 215.552Z" fill="#D45B5B"/>
<path d="M203.352 209.232C203.48 209.28 203.6 209.336 203.728 209.384C203.896 209.448 204.072 209.496 204.24 209.56C203.944 209.448 203.648 209.344 203.352 209.232Z" fill="#D45B5B"/>
<path d="M240 216C236.808 216 233.664 215.832 230.552 215.552C233.664 215.832 236.808 216 240 216Z" fill="#D45B5B"/>
<path d="M200.264 207.992C200.712 208.176 201.136 208.4 201.592 208.584C202.168 208.816 202.768 209.008 203.352 209.224C202.312 208.832 201.288 208.416 200.264 207.992Z" fill="#D45B5B"/>
<path d="M276.648 209.232C277.232 209.016 277.824 208.816 278.408 208.592C278.856 208.408 279.288 208.184 279.736 208C278.712 208.416 277.688 208.832 276.648 209.232Z" fill="#D45B5B"/>
<path d="M278.408 208.584C279.656 208.088 280.896 207.584 282.112 207.04C281.336 207.384 280.52 207.664 279.728 207.992C279.288 208.184 278.856 208.408 278.408 208.584Z" fill="#D45B5B"/>
<path d="M227.48 215.152C228.248 215.248 229 215.4 229.776 215.48C229.904 215.496 230.04 215.488 230.168 215.504C229.264 215.416 228.376 215.264 227.48 215.152Z" fill="#D45B5B"/>
<path d="M197.888 207.04C199.112 207.584 200.352 208.088 201.592 208.584C201.144 208.4 200.712 208.176 200.264 207.992C199.48 207.664 198.664 207.392 197.888 207.04Z" fill="#D45B5B"/>
<path d="M176 193.864V193.744C174.184 192.32 172.368 190.896 170.648 189.352C172.904 191.376 175.248 193.296 177.672 195.12C177.512 195 177.376 194.864 177.216 194.744C176.824 194.44 176.392 194.168 176 193.864Z" fill="#D45B5B"/>
<path d="M269.464 211.696C270.704 211.328 271.92 210.92 273.144 210.512C272.504 210.728 271.84 210.904 271.192 211.112C270.608 211.296 270.048 211.528 269.464 211.696Z" fill="#D45B5B"/>
<path d="M206.856 210.512C208.08 210.92 209.296 211.336 210.536 211.696C209.952 211.52 209.392 211.296 208.816 211.112C208.16 210.904 207.496 210.728 206.856 210.512Z" fill="#D45B5B"/>
<path d="M240 8C182.56 8 136 54.56 136 112C136 142.752 149.432 170.304 170.648 189.352C172.368 190.896 174.184 192.32 176 193.744V170.424C176 158.912 181.752 148.168 191.328 141.784C196.984 138.008 203.624 136 210.424 136H240C223.032 136 192 114.512 192 88C192 61.488 200 32 240 32C280 32 288 61.488 288 88C288 114.512 256.968 136 240 136H269.576C276.368 136 283.016 138.008 288.672 141.784C298.248 148.168 304 158.912 304 170.424V193.744C305.816 192.32 307.632 190.896 309.352 189.352C330.568 170.304 344 142.752 344 112C344 85.32 333.864 61.064 317.352 42.648C298.304 21.432 270.752 8 240 8Z" fill="#4F40A9"/>
<path d="M304 193.736V193.856C303.608 194.168 303.176 194.432 302.776 194.736C302.616 194.856 302.48 194.992 302.32 195.112C304.752 193.288 307.088 191.368 309.344 189.344C307.632 190.888 305.816 192.312 304 193.736Z" fill="#D45B5B"/>
<path d="M300.576 196.328C301.048 195.992 301.552 195.696 302.016 195.344C302.12 195.264 302.224 195.192 302.32 195.112C302.48 194.992 302.616 194.856 302.776 194.736C302.056 195.288 301.312 195.8 300.576 196.328Z" fill="#D45B5B"/>
<path d="M295.528 199.776C295.288 199.928 295.072 200.104 294.832 200.256C297.304 198.72 299.688 197.08 302.016 195.352C301.552 195.696 301.048 195.992 300.576 196.336C298.92 197.52 297.256 198.68 295.528 199.776Z" fill="#D45B5B"/>
<path d="M268.296 212C268.68 211.888 269.08 211.816 269.464 211.696C270.048 211.52 270.608 211.296 271.184 211.112C270.232 211.416 269.272 211.72 268.296 212Z" fill="#D45B5B"/>
<path d="M283.504 206.376C284.08 206.112 284.648 205.824 285.216 205.552C285.032 205.64 284.832 205.72 284.648 205.808C284.256 205.984 283.888 206.192 283.504 206.376Z" fill="#D45B5B"/>
<path d="M284.64 205.8C284.824 205.712 285.024 205.64 285.208 205.544C285.76 205.28 286.312 205.024 286.864 204.752C287.2 204.584 287.512 204.376 287.848 204.2C286.792 204.752 285.72 205.288 284.64 205.8Z" fill="#D45B5B"/>
<path d="M292.728 201.472C293.136 201.232 293.568 201.024 293.968 200.776C294.256 200.6 294.544 200.432 294.824 200.256C295.064 200.104 295.288 199.928 295.52 199.776C294.608 200.36 293.672 200.912 292.728 201.472Z" fill="#D45B5B"/>
<path d="M287.848 204.2C287.512 204.376 287.2 204.576 286.864 204.752C289.296 203.52 291.656 202.184 293.968 200.776C293.568 201.024 293.136 201.232 292.728 201.472C291.128 202.416 289.504 203.336 287.848 204.2Z" fill="#D45B5B"/>
<path d="M260.064 214.024C261.264 213.792 262.44 213.48 263.624 213.2C263.152 213.312 262.672 213.408 262.2 213.512C261.48 213.664 260.784 213.88 260.064 214.024Z" fill="#D45B5B"/>
<path d="M250.224 215.48C251.272 215.376 252.296 215.184 253.336 215.048C253.064 215.08 252.792 215.12 252.52 215.152C251.752 215.248 251 215.408 250.224 215.48Z" fill="#D45B5B"/>
<path d="M208.808 211.112C209.392 211.296 209.944 211.528 210.528 211.696C210.912 211.808 211.312 211.888 211.696 212C210.728 211.72 209.768 211.416 208.808 211.112Z" fill="#D45B5B"/>
<path d="M249.832 215.504C249.96 215.488 250.096 215.496 250.224 215.48C251 215.4 251.744 215.248 252.52 215.152C251.624 215.264 250.736 215.416 249.832 215.504Z" fill="#D45B5B"/>
<path d="M194.784 205.544C195.352 205.816 195.92 206.104 196.496 206.368C196.112 206.192 195.736 205.984 195.352 205.8C195.168 205.712 194.976 205.64 194.784 205.544Z" fill="#D45B5B"/>
<path d="M216.376 213.2C217.56 213.48 218.736 213.784 219.936 214.024C219.216 213.88 218.52 213.672 217.8 213.512C217.328 213.408 216.848 213.312 216.376 213.2Z" fill="#D45B5B"/>
<path d="M192.152 204.2C192.488 204.376 192.8 204.576 193.136 204.752C193.68 205.032 194.24 205.28 194.792 205.544C194.976 205.632 195.176 205.712 195.36 205.8C194.28 205.288 193.208 204.752 192.152 204.2Z" fill="#D45B5B"/>
<path d="M187.272 201.472C186.864 201.232 186.432 201.024 186.032 200.776C188.344 202.184 190.704 203.52 193.136 204.752C192.8 204.584 192.488 204.376 192.152 204.2C190.496 203.336 188.872 202.416 187.272 201.472Z" fill="#D45B5B"/>
<path d="M226.664 215.048C227.704 215.184 228.728 215.376 229.776 215.48C229 215.4 228.256 215.248 227.48 215.152C227.208 215.12 226.936 215.088 226.664 215.048Z" fill="#D45B5B"/>
<path d="M217.8 213.512C218.52 213.672 219.216 213.88 219.936 214.024C220.192 214.072 220.456 214.096 220.704 214.144C219.728 213.96 218.768 213.72 217.8 213.512Z" fill="#D45B5B"/>
<path d="M179.424 196.328C178.952 195.992 178.448 195.696 177.984 195.344C180.312 197.08 182.696 198.712 185.168 200.248C184.928 200.096 184.704 199.92 184.472 199.768C182.744 198.68 181.08 197.52 179.424 196.328Z" fill="#D45B5B"/>
<path d="M177.224 194.744C177.384 194.864 177.52 195 177.68 195.12C177.784 195.2 177.88 195.272 177.984 195.352C178.448 195.696 178.952 195.992 179.424 196.336C178.688 195.8 177.944 195.288 177.224 194.744Z" fill="#D45B5B"/>
<path d="M259.296 214.144C259.552 214.096 259.816 214.08 260.064 214.024C260.784 213.88 261.48 213.672 262.2 213.512C261.232 213.72 260.272 213.96 259.296 214.144Z" fill="#D45B5B"/>
<path d="M184.472 199.776C184.712 199.928 184.928 200.104 185.168 200.256C185.456 200.432 185.744 200.6 186.024 200.776C186.424 201.024 186.856 201.232 187.264 201.472C186.328 200.912 185.392 200.36 184.472 199.776Z" fill="#D45B5B"/>
<path d="M304 193.864V193.744C303.584 194.072 303.2 194.432 302.776 194.752C303.176 194.44 303.608 194.168 304 193.864Z" fill="#D45B5B"/>
<path d="M225.528 214.88C225.904 214.936 226.28 215 226.656 215.056C226.928 215.088 227.2 215.128 227.472 215.16C226.824 215.08 226.184 214.968 225.528 214.88Z" fill="#D45B5B"/>
<path d="M214.416 212.696C215.072 212.864 215.712 213.048 216.376 213.2C216.848 213.312 217.328 213.408 217.8 213.512C216.664 213.264 215.536 212.984 214.416 212.696Z" fill="#D45B5B"/>
<path d="M300.576 196.328C298.928 197.52 297.248 198.68 295.528 199.776C297.256 198.68 298.92 197.52 300.576 196.328Z" fill="#D45B5B"/>
<path d="M204.24 209.552C205.112 209.872 205.976 210.216 206.856 210.512C207.496 210.728 208.16 210.904 208.808 211.112C207.272 210.624 205.744 210.112 204.24 209.552Z" fill="#D45B5B"/>
<path d="M252.52 215.152C252.792 215.12 253.064 215.08 253.336 215.048C253.712 215 254.088 214.928 254.464 214.872C253.816 214.968 253.176 215.08 252.52 215.152Z" fill="#D45B5B"/>
<path d="M187.272 201.472C188.872 202.424 190.496 203.336 192.152 204.2C190.496 203.336 188.872 202.424 187.272 201.472Z" fill="#D45B5B"/>
<path d="M262.2 213.512C262.672 213.408 263.152 213.312 263.624 213.2C264.28 213.048 264.928 212.864 265.584 212.696C264.464 212.984 263.336 213.264 262.2 213.512Z" fill="#D45B5B"/>
<path d="M292.728 201.472C291.128 202.424 289.504 203.336 287.848 204.2C289.504 203.336 291.128 202.416 292.728 201.472Z" fill="#D45B5B"/>
<path d="M252.52 215.152C253.176 215.072 253.816 214.968 254.464 214.872C256.08 214.648 257.696 214.432 259.288 214.136C260.264 213.952 261.224 213.72 262.192 213.504C263.328 213.256 264.456 212.976 265.576 212.688C266.48 212.456 267.392 212.24 268.288 211.992C269.264 211.712 270.224 211.408 271.184 211.104C272.72 210.616 274.248 210.104 275.752 209.544C276.048 209.432 276.344 209.328 276.64 209.216C277.68 208.824 278.704 208.408 279.72 207.984C281.376 207.296 283.016 206.568 284.632 205.792C285.712 205.272 286.784 204.744 287.84 204.192C289.496 203.328 291.12 202.408 292.72 201.464C293.656 200.904 294.6 200.352 295.52 199.768C297.24 198.672 298.912 197.512 300.568 196.32C301.304 195.792 302.048 195.28 302.768 194.736C303.192 194.416 303.576 194.056 303.992 193.728V170.408C303.992 158.896 298.24 148.152 288.664 141.768C283.016 138.008 276.376 136 269.576 136H240L256 176L240 192L224 176L240 136H210.424C203.632 136 196.984 138.008 191.328 141.784C181.752 148.168 176 158.912 176 170.424V193.744C176.416 194.072 176.8 194.432 177.224 194.752C177.944 195.296 178.688 195.808 179.424 196.336C181.072 197.528 182.752 198.688 184.472 199.784C185.392 200.368 186.336 200.92 187.272 201.48C188.872 202.432 190.496 203.344 192.152 204.208C193.208 204.76 194.28 205.288 195.36 205.808C196.976 206.584 198.608 207.312 200.272 208C201.296 208.424 202.32 208.84 203.352 209.232C203.648 209.344 203.944 209.448 204.24 209.56C205.744 210.12 207.272 210.632 208.808 211.12C209.768 211.424 210.728 211.728 211.704 212.008C212.6 212.264 213.512 212.472 214.416 212.704C215.536 212.992 216.664 213.264 217.8 213.52C218.768 213.736 219.728 213.968 220.704 214.152C222.296 214.448 223.912 214.664 225.528 214.888C226.176 214.976 226.824 215.088 227.472 215.168C228.368 215.28 229.256 215.432 230.16 215.512C233.408 215.808 236.68 216 240 216C243.32 216 246.592 215.808 249.832 215.504C250.736 215.416 251.624 215.264 252.52 215.152Z" fill="#B3D5E4"/>
<path d="M195.36 205.8C195.744 205.984 196.112 206.192 196.504 206.368C196.968 206.584 197.424 206.824 197.888 207.032C198.664 207.376 199.48 207.656 200.272 207.984C198.608 207.304 196.968 206.576 195.36 205.8Z" fill="#D45B5B"/>
<path d="M179.424 196.328C181.08 197.52 182.744 198.68 184.472 199.776C182.752 198.68 181.072 197.52 179.424 196.328Z" fill="#D45B5B"/>
<path d="M279.736 207.992C280.528 207.664 281.336 207.384 282.12 207.04C282.592 206.832 283.04 206.584 283.504 206.376C283.888 206.2 284.264 205.992 284.648 205.808C283.032 206.576 281.392 207.304 279.736 207.992Z" fill="#D45B5B"/>
<path d="M271.192 211.112C271.84 210.904 272.504 210.728 273.144 210.512C274.024 210.216 274.888 209.872 275.76 209.552C274.256 210.112 272.728 210.624 271.192 211.112Z" fill="#D45B5B"/>
<path d="M177.224 194.744C176.8 194.424 176.416 194.064 176 193.736V193.856C176.392 194.168 176.824 194.44 177.224 194.744Z" fill="#D45B5B"/>
<path d="M288 88L248 64C240 88 192 88 192 88C192 114.512 223.032 136 240 136C256.968 136 288 114.512 288 88Z" fill="white"/>
<path d="M248 64L288 88C288 61.488 280 32 240 32C200 32 192 61.488 192 88C192 88 240 88 248 64Z" fill="#B3D5E4"/>
<path d="M240 192L256 176L240 136L224 176L240 192Z" fill="#EF6958"/>
<path d="M387.296 470.144C385.336 470.512 383.344 470.8 381.336 471.056C383.336 470.792 385.328 470.512 387.296 470.144Z" fill="#D45B5B"/>
<path d="M325.888 463.04C325.416 462.832 324.968 462.584 324.504 462.376C324.968 462.592 325.416 462.832 325.888 463.04Z" fill="#D45B5B"/>
<path d="M354.664 471.048C352.664 470.792 350.672 470.504 348.704 470.136C350.672 470.512 352.664 470.792 354.664 471.048Z" fill="#D45B5B"/>
<path d="M377.832 471.504C374.592 471.808 371.32 472 368 472C371.32 472 374.592 471.808 377.832 471.504Z" fill="#D45B5B"/>
<path d="M396.296 468C394.752 468.432 393.2 468.832 391.624 469.2C393.2 468.832 394.752 468.44 396.296 468Z" fill="#D45B5B"/>
<path d="M368 472C364.68 472 361.408 471.808 358.168 471.504C361.408 471.808 364.68 472 368 472Z" fill="#D45B5B"/>
<path d="M404.648 465.232C403.48 465.672 402.328 466.12 401.144 466.512C402.328 466.112 403.488 465.672 404.648 465.232Z" fill="#D45B5B"/>
<path d="M334.856 466.512C333.672 466.112 332.512 465.664 331.352 465.232C332.512 465.672 333.672 466.112 334.856 466.512Z" fill="#D45B5B"/>
<path d="M344.376 469.2C342.808 468.832 341.248 468.432 339.704 468C341.248 468.44 342.8 468.832 344.376 469.2Z" fill="#D45B5B"/>
<path d="M411.504 462.376C411.04 462.592 410.584 462.832 410.12 463.04C410.584 462.832 411.032 462.592 411.504 462.376Z" fill="#D45B5B"/>
<path d="M358.168 471.504C356.984 471.392 355.832 471.2 354.664 471.048C355.832 471.2 356.984 471.392 358.168 471.504Z" fill="#D45B5B"/>
<path d="M381.336 471.048C380.168 471.2 379.008 471.392 377.832 471.504C379.016 471.392 380.168 471.2 381.336 471.048Z" fill="#D45B5B"/>
<path d="M410.112 463.04C408.328 463.84 406.488 464.528 404.648 465.232C406.488 464.536 408.328 463.832 410.112 463.04Z" fill="#D45B5B"/>
<path d="M401.144 466.512C399.552 467.056 397.928 467.536 396.296 468C397.928 467.536 399.544 467.048 401.144 466.512Z" fill="#D45B5B"/>
<path d="M391.624 469.2C390.184 469.536 388.752 469.864 387.288 470.136C388.752 469.864 390.192 469.536 391.624 469.2Z" fill="#D45B5B"/>
<path d="M339.704 468C338.072 467.536 336.456 467.056 334.856 466.512C336.456 467.048 338.072 467.536 339.704 468Z" fill="#D45B5B"/>
<path d="M348.704 470.144C347.248 469.872 345.808 469.544 344.368 469.208C345.808 469.536 347.248 469.864 348.704 470.144Z" fill="#D45B5B"/>
<path d="M331.352 465.232C329.512 464.536 327.672 463.84 325.888 463.04C327.672 463.832 329.512 464.536 331.352 465.232Z" fill="#D45B5B"/>
<path d="M368 264C310.56 264 264 310.56 264 368C264 409.888 288.816 445.896 324.496 462.376C317.176 458.976 310.288 454.792 304 449.864V426.424C304 414.912 309.752 404.168 319.328 397.784C324.984 394.008 331.624 392 338.424 392H368C351.032 392 320 370.512 320 344C320 317.488 328 288 368 288C408 288 416 317.488 416 344C416 370.512 384.968 392 368 392H397.576C404.368 392 411.016 394.008 416.672 397.784C426.248 404.168 432 414.912 432 426.424V449.864C425.712 454.792 418.824 458.976 411.504 462.376C447.184 445.896 472 409.888 472 368C472 310.56 425.44 264 368 264Z" fill="#4F40A9"/>
<path d="M432 426.424C432 414.912 426.248 404.168 416.672 397.784C411.016 394.008 404.376 392 397.576 392H368L384 432L368 448L352 432L368 392H338.424C331.632 392 324.984 394.008 319.328 397.784C309.752 404.168 304 414.912 304 426.424V449.864C310.288 454.792 317.176 458.976 324.496 462.376C324.96 462.592 325.416 462.832 325.88 463.04C327.664 463.84 329.504 464.528 331.344 465.232C332.512 465.672 333.664 466.12 334.848 466.512C336.44 467.056 338.064 467.536 339.696 468C341.24 468.432 342.792 468.832 344.368 469.2C345.808 469.536 347.24 469.864 348.704 470.136C350.664 470.504 352.656 470.792 354.664 471.048C355.832 471.2 356.992 471.392 358.168 471.504C361.408 471.808 364.68 472 368 472C371.32 472 374.592 471.808 377.832 471.504C379.016 471.392 380.168 471.2 381.336 471.048C383.336 470.792 385.328 470.504 387.296 470.136C388.752 469.864 390.192 469.536 391.632 469.2C393.2 468.832 394.76 468.432 396.304 468C397.936 467.536 399.552 467.056 401.152 466.512C402.336 466.112 403.496 465.664 404.656 465.232C406.496 464.536 408.336 463.84 410.12 463.04C410.592 462.832 411.04 462.584 411.504 462.376C418.824 458.976 425.712 454.792 432 449.864V426.424Z" fill="#B3D5E4"/>
<path d="M376 320L416 344C416 317.488 408 288 368 288C328 288 320 317.488 320 344C320 344 368 344 376 320Z" fill="#B3D5E4"/>
<path d="M416 344L376 320C368 344 320 344 320 344C320 370.512 351.032 392 368 392C384.968 392 416 370.512 416 344Z" fill="white"/>
<path d="M368 448L384 432L368 392L352 432L368 448Z" fill="#EF6958"/>
<path d="M110.104 401.344C107.248 402.664 104.312 403.864 101.272 404.8C104.312 403.856 107.24 402.664 110.104 401.344Z" fill="#D45B5B"/>
<path d="M40 376C40 353.912 57.912 336 80 336C66.744 336 56 325.256 56 312C56 298.744 66.744 288 80 288C93.256 288 104 298.744 104 312C104 325.256 93.256 336 80 336C102.088 336 120 353.912 120 376V395.856C117.432 397.576 114.712 399.072 111.928 400.464C135.648 388.688 152 364.28 152 336C152 296.232 119.768 264 80 264C40.232 264 8 296.232 8 336C8 364.28 24.352 388.688 48.072 400.464C45.288 399.08 42.568 397.576 40 395.856V376Z" fill="#4F40A9"/>
<path d="M58.7285 404.8C55.6805 403.856 52.7525 402.664 49.8965 401.344C52.7605 402.664 55.6885 403.856 58.7285 404.8Z" fill="#D45B5B"/>
<path d="M101.224 404.808C98.2564 405.728 95.1765 406.376 92.0645 406.912C95.1845 406.384 98.2564 405.728 101.224 404.808Z" fill="#D45B5B"/>
<path d="M80 408C83.304 408 86.536 407.696 89.728 407.264C86.536 407.696 83.304 408 80 408Z" fill="#D45B5B"/>
<path d="M80.0005 408C76.6965 408 73.4645 407.696 70.2725 407.264C73.4645 407.696 76.6965 408 80.0005 408Z" fill="#D45B5B"/>
<path d="M67.9364 406.912C64.8164 406.384 61.7444 405.728 58.7764 404.808C61.7444 405.728 64.8164 406.384 67.9364 406.912Z" fill="#D45B5B"/>
<path d="M80 336C93.2548 336 104 325.255 104 312C104 298.745 93.2548 288 80 288C66.7452 288 56 298.745 56 312C56 325.255 66.7452 336 80 336Z" fill="#EF6958"/>
<path d="M101.272 404.8C101.256 404.808 101.24 404.808 101.232 404.808C101.24 404.808 101.256 404.808 101.272 404.8Z" fill="#D45B5B"/>
<path d="M92.0645 406.912C91.2885 407.04 90.5125 407.16 89.7285 407.272C90.5125 407.16 91.2885 407.04 92.0645 406.912Z" fill="#D45B5B"/>
<path d="M111.928 400.464C111.32 400.768 110.72 401.056 110.104 401.344C110.72 401.056 111.32 400.76 111.928 400.464Z" fill="#D45B5B"/>
<path d="M70.2725 407.264C69.4885 407.16 68.7125 407.04 67.9365 406.904C68.7125 407.04 69.4885 407.16 70.2725 407.264Z" fill="#D45B5B"/>
<path d="M49.8963 401.344C49.2803 401.064 48.6723 400.768 48.0723 400.464C48.6803 400.76 49.2803 401.056 49.8963 401.344Z" fill="#D45B5B"/>
<path d="M58.7763 404.808C58.7603 404.8 58.7443 404.8 58.7363 404.8C58.7443 404.808 58.7603 404.808 58.7763 404.808Z" fill="#D45B5B"/>
<path d="M92.0642 406.912C95.1842 406.384 98.2562 405.728 101.224 404.808C101.24 404.8 101.256 404.8 101.264 404.8C104.312 403.856 107.24 402.664 110.096 401.344C110.712 401.064 111.32 400.768 111.92 400.464C114.704 399.08 117.424 397.576 119.992 395.856V376C119.992 353.912 102.08 336 79.9922 336C57.9042 336 39.9922 353.912 39.9922 376V395.856C42.5602 397.576 45.2802 399.072 48.0642 400.464C48.6722 400.768 49.2722 401.056 49.8882 401.344C52.7442 402.664 55.6802 403.864 58.7202 404.8C58.7362 404.808 58.7522 404.808 58.7602 404.808C61.7282 405.728 64.8082 406.376 67.9202 406.912C68.6962 407.04 69.4722 407.16 70.2562 407.272C73.4642 407.696 76.6962 408 80.0002 408C83.3042 408 86.5362 407.696 89.7282 407.264C90.5122 407.16 91.2882 407.04 92.0642 406.912Z" fill="#EF6958"/>
<path d="M176 472C184.837 472 192 464.837 192 456C192 447.163 184.837 440 176 440C167.163 440 160 447.163 160 456C160 464.837 167.163 472 176 472Z" fill="#8E66FC"/>
<path d="M24 40C32.8366 40 40 32.8366 40 24C40 15.1634 32.8366 8 24 8C15.1634 8 8 15.1634 8 24C8 32.8366 15.1634 40 24 40Z" fill="#8E66FC"/>
<path d="M440 200C457.673 200 472 185.673 472 168C472 150.327 457.673 136 440 136C422.327 136 408 150.327 408 168C408 185.673 422.327 200 440 200Z" fill="#8E66FC"/>
<path d="M456 40C464.837 40 472 32.8366 472 24C472 15.1634 464.837 8 456 8C447.163 8 440 15.1634 440 24C440 32.8366 447.163 40 456 40Z" fill="#8E66FC"/>
<path d="M433.472 32C436.784 41.288 445.584 48 456 48C469.232 48 480 37.232 480 24C480 10.768 469.232 0 456 0C445.584 0 436.784 6.712 433.472 16H336C333.872 16 331.84 16.84 330.344 18.344L317.424 31.264C297.288 11.952 270.04 0 240 0C180.944 0 132.536 45.976 128.408 104H61.192L35.056 45.176C42.712 41.16 48 33.224 48 24C48 10.768 37.232 0 24 0C10.768 0 0 10.768 0 24C0 35.328 7.912 44.792 18.488 47.296L48.688 115.248C49.976 118.136 52.832 120 56 120H128.408C130.32 146.856 141.688 171.096 159.264 189.424L91.728 256.96C87.888 256.392 83.992 256 80 256C35.888 256 0 291.888 0 336C0 363.608 14.056 387.984 35.384 402.368C35.44 402.408 35.488 402.464 35.544 402.504C35.864 402.72 36.224 402.864 36.552 403.08C39.088 404.728 41.736 406.208 44.456 407.56C45.312 407.984 46.16 408.408 47.032 408.8C50.104 410.2 53.248 411.456 56.512 412.464C56.904 412.584 57.312 412.656 57.712 412.776C60.664 413.632 63.696 414.296 66.776 414.808C67.68 414.96 68.576 415.104 69.48 415.224C70.32 415.336 71.144 415.504 71.992 415.592V456C71.992 460.416 75.568 464 79.992 464H153.464C156.776 473.288 165.576 480 175.992 480C189.224 480 199.992 469.232 199.992 456C199.992 442.768 189.224 432 175.992 432C165.576 432 156.776 438.712 153.464 448H88V415.592C88.848 415.504 89.672 415.336 90.512 415.224C91.424 415.104 92.32 414.96 93.216 414.808C96.296 414.288 99.328 413.632 102.28 412.776C102.68 412.664 103.08 412.592 103.48 412.464C106.744 411.456 109.888 410.2 112.968 408.8C113.832 408.408 114.688 407.984 115.544 407.56C118.264 406.2 120.912 404.72 123.448 403.072C123.776 402.864 124.136 402.72 124.456 402.496C124.512 402.456 124.56 402.4 124.616 402.36C145.944 387.984 160 363.608 160 336C160 302.344 139.08 273.528 109.576 261.736L171.112 200.2C171.904 200.816 172.736 201.352 173.536 201.944C175.152 203.136 176.744 204.352 178.424 205.456C180.072 206.552 181.776 207.52 183.472 208.52C185.032 209.44 186.592 210.36 188.2 211.2C190.712 212.52 193.248 213.768 195.84 214.888C196.704 215.264 197.592 215.568 198.472 215.92C200.816 216.864 203.184 217.752 205.592 218.528C206.576 218.848 207.576 219.128 208.576 219.424C210.936 220.112 213.312 220.728 215.72 221.264C216.784 221.504 217.848 221.728 218.92 221.936C221.392 222.408 223.888 222.776 226.408 223.08C227.416 223.2 228.408 223.36 229.416 223.456C232.912 223.792 236.44 224 240 224C243.56 224 247.088 223.792 250.592 223.464C251.608 223.368 252.592 223.216 253.6 223.088C256.112 222.784 258.616 222.416 261.088 221.944C262.16 221.736 263.224 221.512 264.28 221.272C266.688 220.736 269.064 220.12 271.424 219.432C272.424 219.136 273.424 218.856 274.408 218.536C276.816 217.752 279.184 216.872 281.528 215.928C282.4 215.576 283.296 215.264 284.16 214.896C286.76 213.776 289.304 212.528 291.816 211.2C293.408 210.36 294.952 209.456 296.496 208.544C298.2 207.536 299.912 206.56 301.568 205.464C303.248 204.352 304.84 203.144 306.456 201.952C307.256 201.36 308.096 200.824 308.88 200.208L364.84 256.176C304.552 257.848 256 307.304 256 368C256 403.688 272.84 435.464 298.928 455.984C298.992 456.032 299.008 456.112 299.072 456.16C299.88 456.792 300.728 457.328 301.544 457.936C303.16 459.128 304.752 460.344 306.432 461.448C308.08 462.544 309.784 463.512 311.48 464.512C313.04 465.432 314.6 466.352 316.208 467.192C318.72 468.512 321.256 469.76 323.848 470.88C324.712 471.256 325.6 471.56 326.48 471.912C328.824 472.856 331.192 473.744 333.6 474.52C334.584 474.84 335.584 475.12 336.584 475.416C338.944 476.104 341.32 476.72 343.728 477.256C344.792 477.496 345.856 477.72 346.928 477.928C349.4 478.4 351.896 478.768 354.416 479.072C355.424 479.192 356.416 479.352 357.424 479.448C360.912 479.792 364.44 480 368 480C371.56 480 375.088 479.792 378.592 479.464C379.608 479.368 380.592 479.216 381.6 479.088C384.112 478.784 386.616 478.416 389.088 477.944C390.16 477.736 391.224 477.512 392.28 477.272C394.688 476.736 397.064 476.12 399.424 475.432C400.424 475.136 401.424 474.856 402.408 474.536C404.816 473.752 407.184 472.872 409.528 471.928C410.4 471.576 411.296 471.264 412.16 470.896C414.76 469.776 417.304 468.528 419.816 467.2C421.408 466.36 422.952 465.456 424.496 464.544C426.2 463.536 427.912 462.56 429.568 461.464C431.248 460.352 432.84 459.144 434.456 457.952C435.272 457.344 436.12 456.808 436.928 456.176C436.992 456.128 437.016 456.048 437.072 456C463.16 435.464 480 403.688 480 368C480 313.568 440.96 268.136 389.416 258.104L320.736 189.416C338.312 171.096 349.68 146.848 351.592 119.992H432V128.8C413.768 132.52 400 148.672 400 167.992C400 190.048 417.944 207.992 440 207.992C462.056 207.992 480 190.048 480 167.992C480 148.68 466.232 132.52 448 128.8V112C448 107.584 444.424 104 440 104H351.592C349.968 81.144 341.488 60.192 328.152 43.16L339.312 32H433.472ZM456 16C460.416 16 464 19.592 464 24C464 28.408 460.416 32 456 32C451.584 32 448 28.408 448 24C448 19.592 451.584 16 456 16ZM24 16C28.416 16 32 19.592 32 24C32 28.408 28.416 32 24 32C19.584 32 16 28.408 16 24C16 19.592 19.584 16 24 16ZM176 448C180.416 448 184 451.592 184 456C184 460.408 180.416 464 176 464C171.584 464 168 460.408 168 456C168 451.592 171.584 448 176 448ZM64 312C64 303.176 71.176 296 80 296C88.824 296 96 303.176 96 312C96 320.824 88.824 328 80 328C71.176 328 64 320.824 64 312ZM80 344C97.648 344 112 358.352 112 376V391.344C111.752 391.488 111.52 391.648 111.28 391.784C92.192 402.496 67.816 402.496 48.728 391.784C48.48 391.64 48.248 391.48 48 391.344V376C48 358.352 62.352 344 80 344ZM144 336C144 352.168 137.928 366.912 128 378.192V376C128 357.92 117.952 342.16 103.144 333.976C108.6 328.232 112 320.52 112 312C112 294.352 97.648 280 80 280C62.352 280 48 294.352 48 312C48 320.52 51.4 328.232 56.856 333.976C42.048 342.16 32 357.92 32 376V378.192C22.072 366.912 16 352.168 16 336C16 300.712 44.712 272 80 272C115.288 272 144 300.712 144 336ZM464 168C464 181.232 453.232 192 440 192C426.768 192 416 181.232 416 168C416 154.768 426.768 144 440 144C453.232 144 464 154.768 464 168ZM251.032 75.152L279.624 92.312C276.416 111.896 252.28 128 240 128C228.408 128 206.272 113.664 201.112 95.584C214.808 94.456 239.536 90.304 251.032 75.152ZM200.44 79.536C202.584 52.728 215.232 40 240 40C262.704 40 275.176 50.736 278.776 73.136L252.12 57.144C250.04 55.896 247.504 55.664 245.232 56.496C242.952 57.336 241.184 59.168 240.416 61.472C236.368 73.616 214.512 78.2 200.44 79.536ZM240 157.536L246.608 174.072L240 180.688L233.392 174.072L240 157.536ZM228.184 144L216.576 173.024C215.392 176 216.08 179.392 218.352 181.656L234.352 197.656C235.904 199.216 237.952 200 240 200C242.048 200 244.096 199.216 245.656 197.656L261.656 181.656C263.92 179.392 264.616 176 263.432 173.024L251.816 144H269.576C274.808 144 279.872 145.536 284.232 148.44C291.6 153.344 296 161.568 296 170.424V189.784C294.248 191.048 292.472 192.264 290.656 193.4C290.08 193.76 289.504 194.104 288.928 194.456C287 195.6 285.048 196.688 283.056 197.696C282.352 198.048 281.632 198.384 280.92 198.728C279 199.64 277.056 200.504 275.08 201.288C274.208 201.632 273.32 201.936 272.432 202.256C270.56 202.936 268.68 203.584 266.776 204.144C265.656 204.472 264.504 204.736 263.368 205.024C261.744 205.432 260.112 205.848 258.464 206.176C258.288 206.208 258.104 206.248 257.928 206.28C256.44 206.56 254.92 206.76 253.408 206.968C252.336 207.12 251.264 207.304 250.184 207.416C249.768 207.456 249.352 207.52 248.936 207.56C245.984 207.824 243.016 208 240 208C236.984 208 234.016 207.824 231.072 207.544C230.656 207.504 230.24 207.44 229.824 207.4C228.744 207.28 227.672 207.104 226.6 206.952C225.088 206.736 223.568 206.544 222.08 206.264C221.904 206.232 221.72 206.192 221.544 206.16C219.896 205.832 218.264 205.424 216.64 205.008C215.496 204.72 214.352 204.456 213.232 204.128C211.32 203.568 209.44 202.92 207.576 202.24C206.688 201.92 205.8 201.616 204.928 201.272C202.952 200.488 201.008 199.632 199.088 198.712C198.376 198.376 197.656 198.04 196.952 197.68C194.96 196.672 193 195.592 191.08 194.44C190.496 194.096 189.92 193.744 189.352 193.384C187.528 192.248 185.752 191.032 184.008 189.768V170.408C184.008 161.552 188.408 153.336 195.776 148.424C200.128 145.536 205.184 144 210.424 144H228.184ZM379.032 331.152L407.624 348.312C404.416 367.896 380.28 384 368 384C356.408 384 334.272 369.664 329.112 351.584C342.808 350.456 367.536 346.304 379.032 331.152ZM328.44 335.536C330.584 308.728 343.232 296 368 296C390.704 296 403.176 306.736 406.776 329.136L380.12 313.144C378.032 311.896 375.496 311.664 373.232 312.496C370.952 313.336 369.184 315.168 368.416 317.472C364.368 329.616 342.512 334.2 328.44 335.536ZM368 413.536L374.608 430.072L368 436.688L361.392 430.072L368 413.536ZM356.184 400L344.576 429.024C343.392 432 344.08 435.392 346.352 437.656L362.352 453.656C363.904 455.216 365.952 456 368 456C370.048 456 372.096 455.216 373.656 453.656L389.656 437.656C391.92 435.392 392.616 432 391.432 429.024L379.816 400H397.576C402.808 400 407.872 401.536 412.232 404.44C419.6 409.344 424 417.568 424 426.424V445.816C423.768 445.984 423.552 446.16 423.32 446.32C421.976 447.272 420.608 448.168 419.232 449.048C418.144 449.736 417.048 450.408 415.928 451.056C414.728 451.752 413.528 452.44 412.304 453.08C410.656 453.944 408.968 454.744 407.264 455.512C406.464 455.872 405.68 456.272 404.88 456.608C402.256 457.704 399.568 458.696 396.832 459.56C396.344 459.712 395.848 459.832 395.36 459.976C393.064 460.664 390.736 461.264 388.368 461.776C387.552 461.952 386.736 462.104 385.92 462.256C383.776 462.664 381.608 462.992 379.416 463.248C378.592 463.344 377.768 463.464 376.936 463.536C373.984 463.824 371.016 464 368 464C364.984 464 362.016 463.824 359.072 463.544C358.24 463.464 357.416 463.352 356.592 463.256C354.4 462.992 352.232 462.664 350.088 462.264C349.272 462.112 348.456 461.96 347.64 461.784C345.272 461.272 342.944 460.664 340.648 459.984C340.16 459.84 339.656 459.728 339.176 459.568C336.44 458.704 333.76 457.712 331.128 456.616C330.32 456.28 329.536 455.88 328.744 455.52C327.04 454.752 325.352 453.952 323.704 453.088C322.48 452.448 321.28 451.76 320.08 451.064C318.968 450.416 317.864 449.744 316.776 449.056C315.4 448.176 314.024 447.288 312.688 446.328C312.456 446.168 312.24 445.984 312.008 445.824V426.432C312.008 417.576 316.408 409.36 323.776 404.448C328.128 401.536 333.184 400 338.424 400H356.184ZM464 368C464 392.256 454.888 414.368 440 431.288V426.424C440 412.208 432.936 399.008 421.112 391.128C415.616 387.464 409.392 385.208 402.904 384.392C414.776 374.112 424 359.704 424 344C424 291.104 393.544 280 368 280C342.456 280 312 291.104 312 344C312 359.704 321.224 374.112 333.096 384.392C326.608 385.208 320.392 387.464 314.888 391.128C303.064 399.008 296 412.2 296 426.424V431.288C281.112 414.368 272 392.256 272 368C272 315.064 315.064 272 368 272C420.936 272 464 315.064 464 368ZM312 175.288V170.424C312 156.208 304.936 143.008 293.112 135.128C287.616 131.464 281.392 129.208 274.904 128.392C286.776 118.112 296 103.704 296 88C296 35.104 265.544 24 240 24C214.456 24 184 35.104 184 88C184 103.704 193.224 118.112 205.096 128.392C198.608 129.208 192.392 131.464 186.888 135.128C175.064 143.008 168 156.2 168 170.424V175.288C153.112 158.368 144 136.256 144 112C144 59.064 187.064 16 240 16C292.936 16 336 59.064 336 112C336 136.256 326.888 158.368 312 175.288Z" fill="#09114F"/>
</svg>
