<svg width="364" height="62" viewBox="0 0 364 62" fill="none" xmlns="http://www.w3.org/2000/svg">
<path d="M14.6684 50.968C14.0924 51.224 13.1964 51.608 13.0044 51.704C12.7164 51.864 12.3964 52.216 12.3964 52.952V55.96C12.3964 56.664 11.8524 57.208 11.1484 57.208C10.4764 57.208 9.93237 56.664 9.93237 55.96V39.608C9.93237 38.936 10.4764 38.392 11.1484 38.392C11.8524 38.392 12.3964 38.936 12.3964 39.608V44.632L14.0604 43.864C14.3484 43.736 14.6684 43.384 14.6684 42.648V39.224C14.6684 37.688 13.4524 36.408 11.9164 36.376H10.5084C8.90838 36.376 7.62838 37.656 7.62838 39.224V56.376C7.62838 57.944 8.90838 59.224 10.5084 59.224H11.9164C13.4524 59.16 14.6684 57.912 14.6684 56.376V50.968ZM26.1759 59H23.6479L21.6319 43.576L19.6159 59H17.0879L20.4799 36.6H21.7279C22.6879 36.6 22.8479 37.208 22.9439 37.816L26.1759 59ZM29.2661 36.6V58.52C29.2661 58.68 29.3621 59 29.9061 59H31.5381V48.952H32.9141C35.1221 48.952 36.1781 47.384 36.1781 45.208V39.416C36.1781 37.848 34.8021 36.6 33.2661 36.6H29.2661ZM33.9701 45.72C33.9061 46.328 33.3941 46.808 32.7541 46.808H31.5381V38.744H32.7541C33.3941 38.744 33.9061 39.224 33.9701 39.832V45.72ZM40.6136 36.6V58.52C40.6456 58.68 40.7416 59 41.2856 59H42.9176V37.496C42.9176 37.112 42.6616 36.6 41.9896 36.6H40.6136ZM55.8776 36.6H46.7256C46.3416 36.6 46.0216 36.92 46.0216 37.304V38.872H49.2536V58.52C49.2536 58.68 49.3496 59 49.8936 59H51.5256V39.416C51.5576 39.128 51.7816 38.872 52.1016 38.872H53.8936C54.6296 38.872 54.9816 38.552 55.1096 38.264L55.8776 36.6ZM60.1274 36.376C58.5274 36.376 57.2474 37.656 57.2474 39.224V56.408C57.2794 57.944 58.5594 59.224 60.1274 59.224H61.8874C63.4234 59.16 64.6394 57.944 64.6714 56.408V39.224C64.6714 37.688 63.4234 36.44 61.8874 36.376H60.1274ZM60.7674 57.208C60.0954 57.176 59.5514 56.632 59.5514 55.96V39.64C59.5514 38.968 60.0954 38.424 60.7674 38.392H61.1194C61.7914 38.392 62.3354 38.936 62.3354 39.64V55.96C62.3354 56.664 61.7914 57.208 61.1194 57.208H60.7674ZM71.6029 56.728V37.304C71.6029 36.92 71.2829 36.632 70.8989 36.6H69.2989V59H74.8029C75.5389 59 75.8909 58.68 76.0509 58.392C76.1469 58.2 76.5309 57.304 76.7869 56.728H71.6029ZM96.6081 36.6H94.3041V55.96C94.3041 56.632 93.7601 57.176 93.0881 57.176H92.7361C92.0641 57.176 91.5521 56.632 91.5521 55.96V36.6H89.9201C89.5681 36.6 89.2801 36.888 89.2481 37.24V56.376C89.2481 57.944 90.5281 59.128 92.0961 59.128H93.8561V59.096C95.3601 59.064 96.6081 57.912 96.6081 56.376V36.6ZM107.796 36.6H105.492V49.496L103.124 37.848C102.996 37.208 102.772 36.6 101.492 36.6H100.436V59H102.74V46.488L105.204 57.56C105.3 58.008 105.492 59 106.74 59H107.796V36.6ZM112.551 36.6V58.52C112.583 58.68 112.679 59 113.223 59H114.855V37.496C114.855 37.112 114.599 36.6 113.927 36.6H112.551ZM127.623 36.6H125.319L123.047 51.512L120.903 37.464C120.775 36.728 120.391 36.6 120.231 36.6H118.471L121.671 57.432C121.703 57.624 121.895 59 123.047 59H123.207H124.199L127.623 36.6ZM133.703 56.728V48.952C133.703 48.664 133.959 48.408 134.247 48.408H135.207C135.943 48.408 136.263 48.088 136.423 47.8C136.519 47.608 136.903 46.68 137.159 46.104H133.703V39.448C133.703 39.128 133.927 38.904 134.247 38.904H136.103C136.839 38.904 137.191 38.552 137.319 38.264L138.087 36.6H132.103C131.719 36.6 131.431 36.888 131.399 37.24V59H136.519C137.255 59 137.607 58.68 137.767 58.392C137.863 58.2 138.247 57.304 138.503 56.728H133.703ZM148.634 59V50.424C148.634 50.424 148.698 48.76 147.802 48.312C148.73 48.088 148.634 46.328 148.634 46.328V39.416C148.634 37.848 147.354 36.6 145.818 36.6H141.626V59H143.93V49.368H145.146C145.754 49.368 146.33 49.72 146.33 50.808V59H148.634ZM143.93 47.192V38.744H145.146C145.754 38.744 146.33 39.064 146.33 39.896V45.912C146.33 46.936 145.754 47.192 145.146 47.192H143.93ZM159.278 41.464C159.566 41.304 159.918 40.952 159.918 40.216V39.352C159.918 37.816 158.67 36.408 157.134 36.376H155.694C154.094 36.376 152.814 37.784 152.814 39.352V41.656C152.814 41.656 152.718 43.16 153.838 45.208L156.59 50.36C156.59 50.36 157.582 52.088 157.582 53.4V55.96C157.582 56.664 157.038 57.208 156.366 57.208C155.694 57.208 155.15 56.664 155.15 55.992V52.088C154.574 52.344 153.646 52.76 153.454 52.824C153.166 52.984 152.814 53.336 152.814 54.072V56.376C152.846 57.912 154.062 59.16 155.598 59.224H157.038C158.638 59.224 159.918 57.944 159.918 56.376V53.528C159.918 53.528 160.014 52.024 158.894 49.976L156.142 44.792C156.142 44.792 155.15 43.096 155.15 41.784V39.64C155.15 38.936 155.694 38.392 156.366 38.392C157.038 38.392 157.582 38.936 157.582 39.64V42.232C158.19 41.976 159.086 41.56 159.278 41.464ZM164.801 36.6V58.52C164.833 58.68 164.929 59 165.473 59H167.105V37.496C167.105 37.112 166.849 36.6 166.177 36.6H164.801ZM180.065 36.6H170.913C170.529 36.6 170.209 36.92 170.209 37.304V38.872H173.441V58.52C173.441 58.68 173.537 59 174.081 59H175.713V39.416C175.745 39.128 175.969 38.872 176.289 38.872H178.081C178.817 38.872 179.169 38.552 179.297 38.264L180.065 36.6ZM188.251 36.6H186.555C186.491 36.6 185.915 36.632 185.819 37.368L184.347 45.848L182.875 37.368C182.779 36.632 182.203 36.6 182.139 36.6H180.443L183.195 49.688V58.328C183.227 58.712 183.515 59 183.867 59H185.499V49.688L188.251 36.6ZM192.693 56.184H190.773C190.389 56.184 190.389 56.536 190.389 56.536V58.328C190.421 58.68 190.709 59 191.061 59H191.445V59.288C191.445 59.288 191.541 60.152 190.869 60.152V60.824C190.869 60.824 192.693 60.824 192.693 58.904V56.184ZM217.512 50.968C216.936 51.224 216.04 51.608 215.848 51.704C215.56 51.864 215.24 52.216 215.24 52.952V55.96C215.24 56.664 214.696 57.208 213.992 57.208C213.32 57.208 212.776 56.664 212.776 55.96V39.608C212.776 38.936 213.32 38.392 213.992 38.392C214.696 38.392 215.24 38.936 215.24 39.608V44.632L216.904 43.864C217.192 43.736 217.512 43.384 217.512 42.648V39.224C217.512 37.688 216.296 36.408 214.76 36.376H213.352C211.752 36.376 210.472 37.656 210.472 39.224V56.376C210.472 57.944 211.752 59.224 213.352 59.224H214.76C216.296 59.16 217.512 57.912 217.512 56.376V50.968ZM229.02 59H226.492L224.476 43.576L222.46 59H219.932L223.324 36.6H224.572C225.532 36.6 225.692 37.208 225.788 37.816L229.02 59ZM238.542 39.224C238.542 37.688 237.294 36.44 235.758 36.376H234.35C232.782 36.376 231.502 37.656 231.502 39.224V56.376C231.502 57.944 232.782 59.224 234.35 59.224H235.758C237.294 59.16 238.542 57.912 238.542 56.376V48.216C238.542 47.352 238.126 46.968 237.422 46.968H234.542L235.31 48.568C235.31 48.568 235.63 49.304 236.142 49.304H236.238V55.992C236.238 56.664 235.694 57.208 235.022 57.208C234.35 57.208 233.806 56.664 233.806 55.992V39.608C233.806 38.936 234.35 38.392 235.022 38.392C235.694 38.392 236.238 38.936 236.238 39.608V44.728C236.846 44.472 237.742 44.056 237.902 43.96C238.222 43.8 238.542 43.48 238.542 42.712V39.224ZM250.113 59H247.585L245.569 43.576L243.553 59H241.025L244.417 36.6H245.665C246.625 36.6 246.785 37.208 246.881 37.816L250.113 59ZM259.22 36.6H257.524C257.46 36.6 256.884 36.632 256.788 37.368L255.316 45.848L253.844 37.368C253.748 36.632 253.172 36.6 253.108 36.6H251.412L254.164 49.688V58.328C254.196 58.712 254.484 59 254.836 59H256.468V49.688L259.22 36.6ZM269.613 59H267.085L265.069 43.576L263.053 59H260.525L263.917 36.6H265.165C266.125 36.6 266.285 37.208 266.381 37.816L269.613 59ZM279.296 36.6H276.992V49.496L274.624 37.848C274.496 37.208 274.272 36.6 272.992 36.6H271.936V59H274.24V46.488L276.704 57.56C276.8 58.008 276.992 59 278.24 59H279.296V36.6ZM294.343 36.6V59H298.791C300.359 59 301.607 57.752 301.639 56.184V39.416C301.607 37.848 300.359 36.6 298.791 36.6H294.343ZM299.367 55.544C299.367 56.408 298.791 56.728 298.151 56.728H296.647V38.904H298.151C298.791 38.904 299.367 39.224 299.367 40.056V55.544ZM308.89 56.728V48.952C308.89 48.664 309.146 48.408 309.434 48.408H310.394C311.13 48.408 311.45 48.088 311.61 47.8C311.706 47.608 312.09 46.68 312.346 46.104H308.89V39.448C308.89 39.128 309.114 38.904 309.434 38.904H311.29C312.026 38.904 312.378 38.552 312.506 38.264L313.274 36.6H307.29C306.906 36.6 306.618 36.888 306.586 37.24V59H311.706C312.442 59 312.794 58.68 312.954 58.392C313.05 58.2 313.434 57.304 313.69 56.728H308.89ZM330.721 36.376C329.121 36.376 327.841 37.656 327.841 39.224V56.408C327.873 57.944 329.153 59.224 330.721 59.224H332.481C334.017 59.16 335.233 57.944 335.265 56.408V39.224C335.265 37.688 334.017 36.44 332.481 36.376H330.721ZM331.361 57.208C330.689 57.176 330.145 56.632 330.145 55.96V39.64C330.145 38.968 330.689 38.424 331.361 38.392H331.713C332.385 38.392 332.929 38.936 332.929 39.64V55.96C332.929 56.664 332.385 57.208 331.713 57.208H331.361ZM346.197 59V50.424C346.197 50.424 346.261 48.76 345.365 48.312C346.293 48.088 346.197 46.328 346.197 46.328V39.416C346.197 37.848 344.917 36.6 343.381 36.6H339.189V59H341.493V49.368H342.709C343.317 49.368 343.893 49.72 343.893 50.808V59H346.197ZM341.493 47.192V38.744H342.709C343.317 38.744 343.893 39.064 343.893 39.896V45.912C343.893 46.936 343.317 47.192 342.709 47.192H341.493ZM353.096 36.376C351.496 36.376 350.216 37.656 350.216 39.224V56.408C350.248 57.944 351.528 59.224 353.096 59.224H354.856C356.392 59.16 357.608 57.944 357.64 56.408V39.224C357.64 37.688 356.392 36.44 354.856 36.376H353.096ZM353.736 57.208C353.064 57.176 352.52 56.632 352.52 55.96V39.64C352.52 38.968 353.064 38.424 353.736 38.392H354.088C354.76 38.392 355.304 38.936 355.304 39.64V55.96C355.304 56.664 354.76 57.208 354.088 57.208H353.736Z" fill="#545164"/>
<path d="M13.6684 49.968C13.0924 50.224 12.1964 50.608 12.0044 50.704C11.7164 50.864 11.3964 51.216 11.3964 51.952V54.96C11.3964 55.664 10.8524 56.208 10.1484 56.208C9.47638 56.208 8.93237 55.664 8.93237 54.96V38.608C8.93237 37.936 9.47638 37.392 10.1484 37.392C10.8524 37.392 11.3964 37.936 11.3964 38.608V43.632L13.0604 42.864C13.3484 42.736 13.6684 42.384 13.6684 41.648V38.224C13.6684 36.688 12.4524 35.408 10.9164 35.376H9.50838C7.90838 35.376 6.62838 36.656 6.62838 38.224V55.376C6.62838 56.944 7.90838 58.224 9.50838 58.224H10.9164C12.4524 58.16 13.6684 56.912 13.6684 55.376V49.968ZM25.1759 58H22.6479L20.6319 42.576L18.6159 58H16.0879L19.4799 35.6H20.7279C21.6879 35.6 21.8479 36.208 21.9439 36.816L25.1759 58ZM28.2661 35.6V57.52C28.2661 57.68 28.3621 58 28.9061 58H30.5381V47.952H31.9141C34.1221 47.952 35.1781 46.384 35.1781 44.208V38.416C35.1781 36.848 33.8021 35.6 32.2661 35.6H28.2661ZM32.9701 44.72C32.9061 45.328 32.3941 45.808 31.7541 45.808H30.5381V37.744H31.7541C32.3941 37.744 32.9061 38.224 32.9701 38.832V44.72ZM39.6136 35.6V57.52C39.6456 57.68 39.7416 58 40.2856 58H41.9176V36.496C41.9176 36.112 41.6616 35.6 40.9896 35.6H39.6136ZM54.8776 35.6H45.7256C45.3416 35.6 45.0216 35.92 45.0216 36.304V37.872H48.2536V57.52C48.2536 57.68 48.3496 58 48.8936 58H50.5256V38.416C50.5576 38.128 50.7816 37.872 51.1016 37.872H52.8936C53.6296 37.872 53.9816 37.552 54.1096 37.264L54.8776 35.6ZM59.1274 35.376C57.5274 35.376 56.2474 36.656 56.2474 38.224V55.408C56.2794 56.944 57.5594 58.224 59.1274 58.224H60.8874C62.4234 58.16 63.6394 56.944 63.6714 55.408V38.224C63.6714 36.688 62.4234 35.44 60.8874 35.376H59.1274ZM59.7674 56.208C59.0954 56.176 58.5514 55.632 58.5514 54.96V38.64C58.5514 37.968 59.0954 37.424 59.7674 37.392H60.1194C60.7914 37.392 61.3354 37.936 61.3354 38.64V54.96C61.3354 55.664 60.7914 56.208 60.1194 56.208H59.7674ZM70.6029 55.728V36.304C70.6029 35.92 70.2829 35.632 69.8989 35.6H68.2989V58H73.8029C74.5389 58 74.8909 57.68 75.0509 57.392C75.1469 57.2 75.5309 56.304 75.7869 55.728H70.6029ZM95.6081 35.6H93.3041V54.96C93.3041 55.632 92.7601 56.176 92.0881 56.176H91.7361C91.0641 56.176 90.5521 55.632 90.5521 54.96V35.6H88.9201C88.5681 35.6 88.2801 35.888 88.2481 36.24V55.376C88.2481 56.944 89.5281 58.128 91.0961 58.128H92.8561V58.096C94.3601 58.064 95.6081 56.912 95.6081 55.376V35.6ZM106.796 35.6H104.492V48.496L102.124 36.848C101.996 36.208 101.772 35.6 100.492 35.6H99.4356V58H101.74V45.488L104.204 56.56C104.3 57.008 104.492 58 105.74 58H106.796V35.6ZM111.551 35.6V57.52C111.583 57.68 111.679 58 112.223 58H113.855V36.496C113.855 36.112 113.599 35.6 112.927 35.6H111.551ZM126.623 35.6H124.319L122.047 50.512L119.903 36.464C119.775 35.728 119.391 35.6 119.231 35.6H117.471L120.671 56.432C120.703 56.624 120.895 58 122.047 58H122.207H123.199L126.623 35.6ZM132.703 55.728V47.952C132.703 47.664 132.959 47.408 133.247 47.408H134.207C134.943 47.408 135.263 47.088 135.423 46.8C135.519 46.608 135.903 45.68 136.159 45.104H132.703V38.448C132.703 38.128 132.927 37.904 133.247 37.904H135.103C135.839 37.904 136.191 37.552 136.319 37.264L137.087 35.6H131.103C130.719 35.6 130.431 35.888 130.399 36.24V58H135.519C136.255 58 136.607 57.68 136.767 57.392C136.863 57.2 137.247 56.304 137.503 55.728H132.703ZM147.634 58V49.424C147.634 49.424 147.698 47.76 146.802 47.312C147.73 47.088 147.634 45.328 147.634 45.328V38.416C147.634 36.848 146.354 35.6 144.818 35.6H140.626V58H142.93V48.368H144.146C144.754 48.368 145.33 48.72 145.33 49.808V58H147.634ZM142.93 46.192V37.744H144.146C144.754 37.744 145.33 38.064 145.33 38.896V44.912C145.33 45.936 144.754 46.192 144.146 46.192H142.93ZM158.278 40.464C158.566 40.304 158.918 39.952 158.918 39.216V38.352C158.918 36.816 157.67 35.408 156.134 35.376H154.694C153.094 35.376 151.814 36.784 151.814 38.352V40.656C151.814 40.656 151.718 42.16 152.838 44.208L155.59 49.36C155.59 49.36 156.582 51.088 156.582 52.4V54.96C156.582 55.664 156.038 56.208 155.366 56.208C154.694 56.208 154.15 55.664 154.15 54.992V51.088C153.574 51.344 152.646 51.76 152.454 51.824C152.166 51.984 151.814 52.336 151.814 53.072V55.376C151.846 56.912 153.062 58.16 154.598 58.224H156.038C157.638 58.224 158.918 56.944 158.918 55.376V52.528C158.918 52.528 159.014 51.024 157.894 48.976L155.142 43.792C155.142 43.792 154.15 42.096 154.15 40.784V38.64C154.15 37.936 154.694 37.392 155.366 37.392C156.038 37.392 156.582 37.936 156.582 38.64V41.232C157.19 40.976 158.086 40.56 158.278 40.464ZM163.801 35.6V57.52C163.833 57.68 163.929 58 164.473 58H166.105V36.496C166.105 36.112 165.849 35.6 165.177 35.6H163.801ZM179.065 35.6H169.913C169.529 35.6 169.209 35.92 169.209 36.304V37.872H172.441V57.52C172.441 57.68 172.537 58 173.081 58H174.713V38.416C174.745 38.128 174.969 37.872 175.289 37.872H177.081C177.817 37.872 178.169 37.552 178.297 37.264L179.065 35.6ZM187.251 35.6H185.555C185.491 35.6 184.915 35.632 184.819 36.368L183.347 44.848L181.875 36.368C181.779 35.632 181.203 35.6 181.139 35.6H179.443L182.195 48.688V57.328C182.227 57.712 182.515 58 182.867 58H184.499V48.688L187.251 35.6ZM191.693 55.184H189.773C189.389 55.184 189.389 55.536 189.389 55.536V57.328C189.421 57.68 189.709 58 190.061 58H190.445V58.288C190.445 58.288 190.541 59.152 189.869 59.152V59.824C189.869 59.824 191.693 59.824 191.693 57.904V55.184ZM216.512 49.968C215.936 50.224 215.04 50.608 214.848 50.704C214.56 50.864 214.24 51.216 214.24 51.952V54.96C214.24 55.664 213.696 56.208 212.992 56.208C212.32 56.208 211.776 55.664 211.776 54.96V38.608C211.776 37.936 212.32 37.392 212.992 37.392C213.696 37.392 214.24 37.936 214.24 38.608V43.632L215.904 42.864C216.192 42.736 216.512 42.384 216.512 41.648V38.224C216.512 36.688 215.296 35.408 213.76 35.376H212.352C210.752 35.376 209.472 36.656 209.472 38.224V55.376C209.472 56.944 210.752 58.224 212.352 58.224H213.76C215.296 58.16 216.512 56.912 216.512 55.376V49.968ZM228.02 58H225.492L223.476 42.576L221.46 58H218.932L222.324 35.6H223.572C224.532 35.6 224.692 36.208 224.788 36.816L228.02 58ZM237.542 38.224C237.542 36.688 236.294 35.44 234.758 35.376H233.35C231.782 35.376 230.502 36.656 230.502 38.224V55.376C230.502 56.944 231.782 58.224 233.35 58.224H234.758C236.294 58.16 237.542 56.912 237.542 55.376V47.216C237.542 46.352 237.126 45.968 236.422 45.968H233.542L234.31 47.568C234.31 47.568 234.63 48.304 235.142 48.304H235.238V54.992C235.238 55.664 234.694 56.208 234.022 56.208C233.35 56.208 232.806 55.664 232.806 54.992V38.608C232.806 37.936 233.35 37.392 234.022 37.392C234.694 37.392 235.238 37.936 235.238 38.608V43.728C235.846 43.472 236.742 43.056 236.902 42.96C237.222 42.8 237.542 42.48 237.542 41.712V38.224ZM249.113 58H246.585L244.569 42.576L242.553 58H240.025L243.417 35.6H244.665C245.625 35.6 245.785 36.208 245.881 36.816L249.113 58ZM258.22 35.6H256.524C256.46 35.6 255.884 35.632 255.788 36.368L254.316 44.848L252.844 36.368C252.748 35.632 252.172 35.6 252.108 35.6H250.412L253.164 48.688V57.328C253.196 57.712 253.484 58 253.836 58H255.468V48.688L258.22 35.6ZM268.613 58H266.085L264.069 42.576L262.053 58H259.525L262.917 35.6H264.165C265.125 35.6 265.285 36.208 265.381 36.816L268.613 58ZM278.296 35.6H275.992V48.496L273.624 36.848C273.496 36.208 273.272 35.6 271.992 35.6H270.936V58H273.24V45.488L275.704 56.56C275.8 57.008 275.992 58 277.24 58H278.296V35.6ZM293.343 35.6V58H297.791C299.359 58 300.607 56.752 300.639 55.184V38.416C300.607 36.848 299.359 35.6 297.791 35.6H293.343ZM298.367 54.544C298.367 55.408 297.791 55.728 297.151 55.728H295.647V37.904H297.151C297.791 37.904 298.367 38.224 298.367 39.056V54.544ZM307.89 55.728V47.952C307.89 47.664 308.146 47.408 308.434 47.408H309.394C310.13 47.408 310.45 47.088 310.61 46.8C310.706 46.608 311.09 45.68 311.346 45.104H307.89V38.448C307.89 38.128 308.114 37.904 308.434 37.904H310.29C311.026 37.904 311.378 37.552 311.506 37.264L312.274 35.6H306.29C305.906 35.6 305.618 35.888 305.586 36.24V58H310.706C311.442 58 311.794 57.68 311.954 57.392C312.05 57.2 312.434 56.304 312.69 55.728H307.89ZM329.721 35.376C328.121 35.376 326.841 36.656 326.841 38.224V55.408C326.873 56.944 328.153 58.224 329.721 58.224H331.481C333.017 58.16 334.233 56.944 334.265 55.408V38.224C334.265 36.688 333.017 35.44 331.481 35.376H329.721ZM330.361 56.208C329.689 56.176 329.145 55.632 329.145 54.96V38.64C329.145 37.968 329.689 37.424 330.361 37.392H330.713C331.385 37.392 331.929 37.936 331.929 38.64V54.96C331.929 55.664 331.385 56.208 330.713 56.208H330.361ZM345.197 58V49.424C345.197 49.424 345.261 47.76 344.365 47.312C345.293 47.088 345.197 45.328 345.197 45.328V38.416C345.197 36.848 343.917 35.6 342.381 35.6H338.189V58H340.493V48.368H341.709C342.317 48.368 342.893 48.72 342.893 49.808V58H345.197ZM340.493 46.192V37.744H341.709C342.317 37.744 342.893 38.064 342.893 38.896V44.912C342.893 45.936 342.317 46.192 341.709 46.192H340.493ZM352.096 35.376C350.496 35.376 349.216 36.656 349.216 38.224V55.408C349.248 56.944 350.528 58.224 352.096 58.224H353.856C355.392 58.16 356.608 56.944 356.64 55.408V38.224C356.64 36.688 355.392 35.44 353.856 35.376H352.096ZM352.736 56.208C352.064 56.176 351.52 55.632 351.52 54.96V38.64C351.52 37.968 352.064 37.424 352.736 37.392H353.088C353.76 37.392 354.304 37.936 354.304 38.64V54.96C354.304 55.664 353.76 56.208 353.088 56.208H352.736Z" fill="white"/>
<path d="M94.0284 1.38239C92.4924 1.41459 91.2764 2.70275 91.2764 4.24854V11.8487C91.2764 13.3301 91.7564 15.1013 94.4764 15.1013H96.0124V21.0912C96.0124 21.7997 95.4684 22.3472 94.7964 22.3472C94.0924 22.3472 93.5804 21.7997 93.5804 21.0912V18.4505C93.0044 18.7081 92.1084 19.159 91.9164 19.2556C91.6284 19.4166 91.2764 19.7708 91.2764 20.5115V21.5099C91.2764 23.0556 92.5244 24.3116 94.0604 24.376H95.4684C97.0364 24.376 98.3164 23.0879 98.3164 21.5099V4.24854C98.3164 2.67054 97.0364 1.38239 95.4684 1.38239H94.0284ZM96.0124 13.0402H94.7964C93.8684 13.0402 93.5804 12.686 93.5804 11.8487V4.53837C93.6444 3.89429 94.1564 3.41123 94.7964 3.41123C95.4684 3.41123 96.0124 3.9587 96.0124 4.66719V13.0402Z" fill="#545164"/>
<path d="M123.411 1.60781H121.107V14.586L118.739 2.86377C118.611 2.21969 118.387 1.60781 117.107 1.60781H116.051V24.1506H118.355V11.5588L120.819 22.7014C120.915 23.1523 121.107 24.1506 122.355 24.1506H123.411V1.60781Z" fill="#545164"/>
<path d="M131.367 1.38239C129.767 1.38239 128.487 2.67054 128.487 4.24854V21.5421C128.519 23.0879 129.799 24.376 131.367 24.376H133.127C134.663 24.3116 135.879 23.0879 135.911 21.5421V4.24854C135.911 2.70275 134.663 1.44679 133.127 1.38239H131.367ZM132.007 22.3472C131.335 22.315 130.791 21.7675 130.791 21.0912V4.66719C130.791 3.9909 131.335 3.44344 132.007 3.41123H132.359C133.031 3.41123 133.575 3.9587 133.575 4.66719V21.0912C133.575 21.7997 133.031 22.3472 132.359 22.3472H132.007Z" fill="#545164"/>
<path d="M148.986 1.60781H146.682L144.41 16.6149L142.266 2.47732C142.138 1.73663 141.754 1.60781 141.594 1.60781H139.834L143.034 22.5726C143.066 22.7658 143.258 24.1506 144.41 24.1506H145.562L148.986 1.60781Z" fill="#545164"/>
<path d="M156.346 21.8641V14.0385C156.346 13.7487 156.602 13.4911 156.89 13.4911H157.85C158.586 13.4911 158.906 13.169 159.066 12.8792C159.162 12.686 159.546 11.7521 159.802 11.1724H156.346V4.47397C156.346 4.15192 156.57 3.9265 156.89 3.9265H158.746C159.482 3.9265 159.834 3.57225 159.962 3.28242L160.73 1.60781H154.746C154.362 1.60781 154.074 1.89765 154.042 2.25189V24.1506H159.162C159.898 24.1506 160.25 23.8285 160.41 23.5387C160.506 23.3455 160.89 22.4438 161.146 21.8641H156.346Z" fill="#545164"/>
<path d="M174.445 1.60781H173.037C172.205 1.60781 172.045 2.3163 172.013 2.41291L169.485 15.3911L166.829 2.44512C166.829 2.44512 166.701 1.60781 165.805 1.60781H164.397V24.1506H166.669V12.525L168.013 18.4183C168.141 18.9013 168.397 20.2539 169.741 20.2539H170.445L172.173 12.525V24.1506H174.445V1.60781Z" fill="#545164"/>
<path d="M184.401 12.8792C185.745 12.4605 185.713 11.0436 185.713 11.0436V4.44176C185.681 2.86377 184.433 1.60781 182.865 1.60781H178.705V24.1506H182.865C184.433 24.1506 185.681 22.8946 185.713 21.3166V14.7148C185.713 14.7148 185.745 13.2978 184.401 12.8792ZM183.409 10.4961C183.409 11.5266 182.833 11.8165 182.225 11.8165H180.977V3.9265H182.225C182.833 3.9265 183.409 4.24854 183.409 5.08584V10.4961ZM183.409 20.6726C183.409 21.5421 182.833 21.8641 182.225 21.8641H180.977V13.9419H182.225C182.833 13.9419 183.409 14.2318 183.409 15.2301V20.6726Z" fill="#545164"/>
<path d="M194.405 21.8641V14.0385C194.405 13.7487 194.661 13.4911 194.949 13.4911H195.909C196.645 13.4911 196.965 13.169 197.125 12.8792C197.221 12.686 197.605 11.7521 197.861 11.1724H194.405V4.47397C194.405 4.15192 194.629 3.9265 194.949 3.9265H196.805C197.541 3.9265 197.893 3.57225 198.021 3.28242L198.789 1.60781H192.805C192.421 1.60781 192.133 1.89765 192.101 2.25189V24.1506H197.221C197.957 24.1506 198.309 23.8285 198.469 23.5387C198.565 23.3455 198.949 22.4438 199.205 21.8641H194.405Z" fill="#545164"/>
<path d="M210.616 24.1506V15.5199C210.616 15.5199 210.68 13.8453 209.784 13.3945C210.712 13.169 210.616 11.3978 210.616 11.3978V4.44176C210.616 2.86377 209.336 1.60781 207.8 1.60781H203.608V24.1506H205.912V14.4572H207.128C207.736 14.4572 208.312 14.8114 208.312 15.9064V24.1506H210.616ZM205.912 12.2673V3.76548H207.128C207.736 3.76548 208.312 4.08752 208.312 4.92482V10.9792C208.312 12.0097 207.736 12.2673 207.128 12.2673H205.912Z" fill="#545164"/>
<path d="M231.903 3.41123C232.575 3.41123 233.119 3.9587 233.119 4.63499V8.40285C233.119 9.52999 232.127 11.7199 232.127 11.7199L229.343 18.2251C228.319 20.4793 228.383 22.1861 228.383 22.1861V24.1506H234.271C235.007 24.1506 235.359 23.7963 235.519 23.5065C235.615 23.3133 235.999 22.4438 236.255 21.8319H230.687V21.4777C230.687 20.4471 231.679 18.2895 231.679 18.2895L234.911 10.8826C235.455 9.72321 235.423 8.14522 235.423 8.14522V4.24854C235.423 2.67054 234.143 1.38239 232.575 1.38239H231.231C229.663 1.38239 228.383 2.67054 228.383 4.24854V5.24686C228.383 5.98755 228.703 6.34179 228.991 6.50281C229.183 6.59943 230.079 7.01808 230.687 7.27571V4.63499C230.687 3.9587 231.231 3.41123 231.903 3.41123Z" fill="#545164"/>
<path d="M243.891 1.38239C242.323 1.38239 241.043 2.67054 241.043 4.24854V21.5421C241.043 23.0879 242.323 24.376 243.891 24.376H245.331C246.835 24.3116 248.083 23.0879 248.083 21.5421V4.24854C248.083 2.70275 246.867 1.44679 245.331 1.38239H243.891ZM244.563 22.3472C243.891 22.3472 243.347 21.7997 243.347 21.1234V4.66719C243.347 3.9909 243.891 3.41123 244.563 3.41123C245.235 3.41123 245.779 3.9909 245.779 4.66719V21.1234C245.779 21.7997 245.235 22.3472 244.563 22.3472Z" fill="#545164"/>
<path d="M253.51 1.60781C253.766 2.18748 253.926 3.08919 254.022 3.28242C254.118 3.50785 254.374 3.76548 254.822 3.86209C255.174 3.9265 255.238 4.15192 255.238 4.40956V23.4421C255.238 23.8285 255.558 24.1506 255.942 24.1506H257.542V3.1536C257.542 1.479 256.326 1.60781 256.326 1.60781H253.51Z" fill="#545164"/>
<path d="M267.448 1.38239C265.912 1.41459 264.696 2.70275 264.696 4.24854V11.8487C264.696 13.3301 265.176 15.1013 267.896 15.1013H269.432V21.0912C269.432 21.7997 268.888 22.3472 268.216 22.3472C267.512 22.3472 267 21.7997 267 21.0912V18.4505C266.424 18.7081 265.528 19.159 265.336 19.2556C265.048 19.4166 264.696 19.7708 264.696 20.5115V21.5099C264.696 23.0556 265.944 24.3116 267.48 24.376H268.888C270.456 24.376 271.736 23.0879 271.736 21.5099V4.24854C271.736 2.67054 270.456 1.38239 268.888 1.38239H267.448ZM269.432 13.0402H268.216C267.288 13.0402 267 12.686 267 11.8487V4.53837C267.064 3.89429 267.576 3.41123 268.216 3.41123C268.888 3.41123 269.432 3.9587 269.432 4.66719V13.0402Z" fill="#545164"/>
<path d="M93.0284 0.376007C91.4924 0.408211 90.2764 1.69637 90.2764 3.24216V10.8423C90.2764 12.3237 90.7564 14.0949 93.4764 14.0949H95.0124V20.0848C95.0124 20.7933 94.4684 21.3408 93.7964 21.3408C93.0924 21.3408 92.5804 20.7933 92.5804 20.0848V17.4441C92.0044 17.7017 91.1084 18.1526 90.9164 18.2492C90.6284 18.4102 90.2764 18.7645 90.2764 19.5052V20.5035C90.2764 22.0493 91.5244 23.3052 93.0604 23.3696H94.4684C96.0364 23.3696 97.3164 22.0815 97.3164 20.5035V3.24216C97.3164 1.66416 96.0364 0.376007 94.4684 0.376007H93.0284ZM95.0124 12.0338H93.7964C92.8684 12.0338 92.5804 11.6796 92.5804 10.8423V3.53199C92.6444 2.88792 93.1564 2.40486 93.7964 2.40486C94.4684 2.40486 95.0124 2.95232 95.0124 3.66081V12.0338Z" fill="#FCFCFC"/>
<path d="M122.411 0.601434H120.107V13.5796L117.739 1.85739C117.611 1.21331 117.387 0.601434 116.107 0.601434H115.051V23.1442H117.355V10.5525L119.819 21.695C119.915 22.1459 120.107 23.1442 121.355 23.1442H122.411V0.601434Z" fill="#FCFCFC"/>
<path d="M130.367 0.376007C128.767 0.376007 127.487 1.66416 127.487 3.24216V20.5357C127.519 22.0815 128.799 23.3696 130.367 23.3696H132.127C133.663 23.3052 134.879 22.0815 134.911 20.5357V3.24216C134.911 1.69637 133.663 0.440414 132.127 0.376007H130.367ZM131.007 21.3408C130.335 21.3086 129.791 20.7611 129.791 20.0848V3.66081C129.791 2.98453 130.335 2.43706 131.007 2.40486H131.359C132.031 2.40486 132.575 2.95232 132.575 3.66081V20.0848C132.575 20.7933 132.031 21.3408 131.359 21.3408H131.007Z" fill="#FCFCFC"/>
<path d="M147.986 0.601434H145.682L143.41 15.6085L141.266 1.47094C141.138 0.73025 140.754 0.601434 140.594 0.601434H138.834L142.034 21.5662C142.066 21.7594 142.258 23.1442 143.41 23.1442H144.562L147.986 0.601434Z" fill="#FCFCFC"/>
<path d="M155.346 20.8577V13.0322C155.346 12.7423 155.602 12.4847 155.89 12.4847H156.85C157.586 12.4847 157.906 12.1627 158.066 11.8728C158.162 11.6796 158.546 10.7457 158.802 10.166H155.346V3.46759C155.346 3.14555 155.57 2.92012 155.89 2.92012H157.746C158.482 2.92012 158.834 2.56587 158.962 2.27604L159.73 0.601434H153.746C153.362 0.601434 153.074 0.89127 153.042 1.24551V23.1442H158.162C158.898 23.1442 159.25 22.8222 159.41 22.5323C159.506 22.3391 159.89 21.4374 160.146 20.8577H155.346Z" fill="#FCFCFC"/>
<path d="M173.445 0.601434H172.037C171.205 0.601434 171.045 1.30992 171.013 1.40653L168.485 14.3847L165.829 1.43874C165.829 1.43874 165.701 0.601434 164.805 0.601434H163.397V23.1442H165.669V11.5186L167.013 17.4119C167.141 17.895 167.397 19.2475 168.741 19.2475H169.445L171.173 11.5186V23.1442H173.445V0.601434Z" fill="#FCFCFC"/>
<path d="M183.401 11.8728C184.745 11.4542 184.713 10.0372 184.713 10.0372V3.43538C184.681 1.85739 183.433 0.601434 181.865 0.601434H177.705V23.1442H181.865C183.433 23.1442 184.681 21.8883 184.713 20.3103V13.7084C184.713 13.7084 184.745 12.2915 183.401 11.8728ZM182.409 9.48973C182.409 10.5203 181.833 10.8101 181.225 10.8101H179.977V2.92012H181.225C181.833 2.92012 182.409 3.24216 182.409 4.07946V9.48973ZM182.409 19.6662C182.409 20.5357 181.833 20.8577 181.225 20.8577H179.977V12.9356H181.225C181.833 12.9356 182.409 13.2254 182.409 14.2237V19.6662Z" fill="#FCFCFC"/>
<path d="M193.405 20.8577V13.0322C193.405 12.7423 193.661 12.4847 193.949 12.4847H194.909C195.645 12.4847 195.965 12.1627 196.125 11.8728C196.221 11.6796 196.605 10.7457 196.861 10.166H193.405V3.46759C193.405 3.14555 193.629 2.92012 193.949 2.92012H195.805C196.541 2.92012 196.893 2.56587 197.021 2.27604L197.789 0.601434H191.805C191.421 0.601434 191.133 0.89127 191.101 1.24551V23.1442H196.221C196.957 23.1442 197.309 22.8222 197.469 22.5323C197.565 22.3391 197.949 21.4374 198.205 20.8577H193.405Z" fill="#FCFCFC"/>
<path d="M209.616 23.1442V14.5135C209.616 14.5135 209.68 12.8389 208.784 12.3881C209.712 12.1627 209.616 10.3914 209.616 10.3914V3.43538C209.616 1.85739 208.336 0.601434 206.8 0.601434H202.608V23.1442H204.912V13.4508H206.128C206.736 13.4508 207.312 13.8051 207.312 14.9V23.1442H209.616ZM204.912 11.2609V2.7591H206.128C206.736 2.7591 207.312 3.08114 207.312 3.91844V9.97279C207.312 11.0033 206.736 11.2609 206.128 11.2609H204.912Z" fill="#FCFCFC"/>
<path d="M230.903 2.40486C231.575 2.40486 232.119 2.95232 232.119 3.62861V7.39647C232.119 8.52361 231.127 10.7135 231.127 10.7135L228.343 17.2187C227.319 19.473 227.383 21.1798 227.383 21.1798V23.1442H233.271C234.007 23.1442 234.359 22.79 234.519 22.5001C234.615 22.3069 234.999 21.4374 235.255 20.8255H229.687V20.4713C229.687 19.4408 230.679 17.2831 230.679 17.2831L233.911 9.87617C234.455 8.71683 234.423 7.13884 234.423 7.13884V3.24216C234.423 1.66416 233.143 0.376007 231.575 0.376007H230.231C228.663 0.376007 227.383 1.66416 227.383 3.24216V4.24048C227.383 4.98117 227.703 5.33542 227.991 5.49644C228.183 5.59305 229.079 6.0117 229.687 6.26933V3.62861C229.687 2.95232 230.231 2.40486 230.903 2.40486Z" fill="#FCFCFC"/>
<path d="M242.891 0.376007C241.323 0.376007 240.043 1.66416 240.043 3.24216V20.5357C240.043 22.0815 241.323 23.3696 242.891 23.3696H244.331C245.835 23.3052 247.083 22.0815 247.083 20.5357V3.24216C247.083 1.69637 245.867 0.440414 244.331 0.376007H242.891ZM243.563 21.3408C242.891 21.3408 242.347 20.7933 242.347 20.117V3.66081C242.347 2.98453 242.891 2.40486 243.563 2.40486C244.235 2.40486 244.779 2.98453 244.779 3.66081V20.117C244.779 20.7933 244.235 21.3408 243.563 21.3408Z" fill="#FCFCFC"/>
<path d="M252.51 0.601434C252.766 1.18111 252.926 2.08282 253.022 2.27604C253.118 2.50147 253.374 2.7591 253.822 2.85571C254.174 2.92012 254.238 3.14555 254.238 3.40318V22.4357C254.238 22.8222 254.558 23.1442 254.942 23.1442H256.542V2.14722C256.542 0.472618 255.326 0.601434 255.326 0.601434H252.51Z" fill="#FCFCFC"/>
<path d="M266.448 0.376007C264.912 0.408211 263.696 1.69637 263.696 3.24216V10.8423C263.696 12.3237 264.176 14.0949 266.896 14.0949H268.432V20.0848C268.432 20.7933 267.888 21.3408 267.216 21.3408C266.512 21.3408 266 20.7933 266 20.0848V17.4441C265.424 17.7017 264.528 18.1526 264.336 18.2492C264.048 18.4102 263.696 18.7645 263.696 19.5052V20.5035C263.696 22.0493 264.944 23.3052 266.48 23.3696H267.888C269.456 23.3696 270.736 22.0815 270.736 20.5035V3.24216C270.736 1.66416 269.456 0.376007 267.888 0.376007H266.448ZM268.432 12.0338H267.216C266.288 12.0338 266 11.6796 266 10.8423V3.53199C266.064 2.88792 266.576 2.40486 267.216 2.40486C267.888 2.40486 268.432 2.95232 268.432 3.66081V12.0338Z" fill="#FCFCFC"/>
</svg>
