<svg width="458" height="512" viewBox="0 0 458 512" fill="none" xmlns="http://www.w3.org/2000/svg">
<path d="M404.664 285.445H343.465C333.465 285.445 325.363 293.551 325.363 303.547V376.773C325.363 366.777 317.258 358.672 307.262 358.672H246.059C236.059 358.672 227.957 366.773 227.957 376.773V425.051C227.957 415.055 219.852 406.949 209.855 406.949H148.652C138.652 406.949 130.551 415.055 130.551 425.051V469.992C130.551 459.996 122.445 451.891 112.445 451.891H51.2461C41.25 451.891 33.1445 459.992 33.1445 469.992V504.355H422.77V303.547C422.77 293.551 414.664 285.445 404.664 285.445Z" fill="#A7C7D3"/>
<path d="M351.805 293.09C347.578 293.09 344.156 289.668 344.156 285.445V7.64453C344.156 3.42188 347.578 0 351.805 0C356.027 0 359.449 3.42188 359.449 7.64453V285.445C359.449 289.668 356.023 293.09 351.805 293.09Z" fill="#A7C7D3"/>
<path d="M130.551 504.355H33.1445V469.992C33.1445 459.996 41.25 451.891 51.2461 451.891H112.449C122.445 451.891 130.551 459.992 130.551 469.992V504.355Z" fill="#A3DCF2"/>
<path d="M227.957 504.355H130.551V425.051C130.551 415.055 138.656 406.949 148.652 406.949H209.855C219.852 406.949 227.957 415.055 227.957 425.051V504.355Z" fill="#74D2F7"/>
<path d="M325.363 504.355H227.957V376.773C227.957 366.777 236.059 358.672 246.059 358.672H307.262C317.258 358.672 325.363 366.773 325.363 376.773V504.355Z" fill="#3DB1DF"/>
<path d="M422.77 504.355H325.363V303.547C325.363 293.551 333.465 285.445 343.465 285.445H404.664C414.664 285.445 422.77 293.551 422.77 303.547V504.355Z" fill="#299BC9"/>
<path d="M449.766 512H7.64453C3.42188 512 0 508.578 0 504.355C0 500.133 3.42188 496.711 7.64453 496.711H449.766C453.988 496.711 457.41 500.133 457.41 504.355C457.41 508.578 453.988 512 449.766 512Z" fill="#2F5066"/>
<path d="M351.805 80.3281H449.777C452.812 80.3281 454.23 76.5703 451.953 74.5664L426.504 52.1523C425.012 50.8438 425.012 48.5234 426.504 47.2109L451.953 24.8008C454.23 22.793 452.812 19.0352 449.777 19.0352H351.805V80.3281Z" fill="#EF6958"/>
<path d="M359.605 109.012L253.473 166.656C244.004 171.801 241.414 180.84 238.109 192.484L217.004 267.129L244.879 276.703L268.727 245.93L288.801 185.238L342.211 152.785C357.137 143.719 364.234 125.852 359.605 109.012Z" fill="#E66B97"/>
<path d="M359.605 109.012L347.359 115.664C345.297 126.203 338.93 135.723 329.301 141.574L280.633 171.145C277.57 173.004 275.27 175.898 274.141 179.301L267.191 200.312C259.969 222.148 243.562 239.738 222.281 248.461L217.004 267.129L268.727 245.934L288.801 185.242L342.211 152.785C357.137 143.719 364.234 125.852 359.605 109.012Z" fill="#D24477"/>
<path d="M268.727 245.93L299.289 282.055C304.355 288.762 308.762 293.477 307.848 300.855L300.699 358.641H282.047L277.172 308.965C276.875 305.957 274.973 303.352 272.199 302.156L217.004 267.129L268.727 245.93Z" fill="#09114F"/>
<path d="M217.004 267.129L214.023 321.898C213.828 326.441 214.465 329.512 212.688 332.891L177.492 406.949H197.277L250.195 336.645C253.289 333.043 253.648 328.152 254.691 323.652L268.723 245.93L217.004 267.129Z" fill="#323C8C"/>
<path d="M264.934 120.836L273.614 137.781C277.692 145.742 274.543 155.508 266.578 159.586L259.871 163.02C251.906 167.098 242.145 163.949 238.067 155.984L229.387 139.039C225.309 131.074 228.457 121.312 236.422 117.234L243.129 113.801C251.09 109.723 260.852 112.871 264.934 120.836Z" fill="#FECBAA"/>
</svg>
